<?xml version="1.0" encoding="UTF-8"?>
<svg width="1em" height="1em" viewBox="0 0 11 12" version="1.1" xmlns="http://www.w3.org/2000/svg" xmlns:xlink="http://www.w3.org/1999/xlink">
    <title>􀄔</title>
    <g id="Page-1" stroke="none" stroke-width="1" fill="none" fill-rule="evenodd">
        <path d="M8.9140625,11.1484375 C9.5078125,11.1484375 9.95410156,11 10.2529297,10.703125 C10.5517578,10.40625 10.7011719,9.96679688 10.7011719,9.38476562 L10.7011719,2.62890625 C10.7011719,2.046875 10.5517578,1.60742188 10.2529297,1.31054688 C9.95410156,1.01367188 9.5078125,0.865234375 8.9140625,0.865234375 L2.19921875,0.865234375 C1.609375,0.865234375 1.1640625,1.01269531 0.86328125,1.30761719 C0.5625,1.60253906 0.412109375,2.04296875 0.412109375,2.62890625 L0.412109375,9.38476562 C0.412109375,9.97070312 0.5625,10.4111328 0.86328125,10.7060547 C1.1640625,11.0009766 1.609375,11.1484375 2.19921875,11.1484375 L8.9140625,11.1484375 Z M8.87304688,10.1464844 L2.24023438,10.1464844 C1.97851562,10.1464844 1.77636719,10.0761719 1.63378906,9.93554688 C1.49121094,9.79492188 1.41992188,9.5859375 1.41992188,9.30859375 L1.41992188,2.70507812 C1.41992188,2.42773438 1.49121094,2.21875 1.63378906,2.078125 C1.77636719,1.9375 1.97851562,1.8671875 2.24023438,1.8671875 L8.87304688,1.8671875 C9.13476562,1.8671875 9.33789062,1.9375 9.48242188,2.078125 C9.62695312,2.21875 9.69921875,2.42773438 9.69921875,2.70507812 L9.69921875,9.30859375 C9.69921875,9.5859375 9.62695312,9.79492188 9.48242188,9.93554688 C9.33789062,10.0761719 9.13476562,10.1464844 8.87304688,10.1464844 Z M3.84570312,8.15429688 C3.91601562,8.15429688 3.97949219,8.14160156 4.03613281,8.11621094 C4.09277344,8.09082031 4.14257812,8.0546875 4.18554688,8.0078125 L6.171875,6.02734375 L6.93945312,5.1953125 L6.85742188,6.02148438 L6.85742188,6.94140625 C6.85742188,7.0859375 6.89746094,7.20019531 6.97753906,7.28417969 C7.05761719,7.36816406 7.16210938,7.41015625 7.29101562,7.41015625 C7.42382812,7.41015625 7.52929688,7.36523438 7.60742188,7.27539062 C7.68554688,7.18554688 7.72460938,7.0703125 7.72460938,6.9296875 L7.72460938,4.33984375 C7.72460938,4.16015625 7.67871094,4.02929688 7.58691406,3.94726562 C7.49511719,3.86523438 7.36914062,3.82421875 7.20898438,3.82421875 L4.6015625,3.82421875 C4.4609375,3.82421875 4.34863281,3.86425781 4.26464844,3.94433594 C4.18066406,4.02441406 4.13867188,4.12890625 4.13867188,4.2578125 C4.13867188,4.390625 4.18164062,4.49707031 4.26757812,4.57714844 C4.35351562,4.65722656 4.46679688,4.69726562 4.60742188,4.69726562 L5.58007812,4.69726562 L6.359375,4.609375 L5.52148438,5.3828125 L3.53515625,7.36914062 C3.4375,7.46289062 3.38867188,7.57226562 3.38867188,7.69726562 C3.38867188,7.83398438 3.43066406,7.94433594 3.51464844,8.02832031 C3.59863281,8.11230469 3.70898438,8.15429688 3.84570312,8.15429688 Z" fill="currentcolor" fill-rule="nonzero"></path>
    </g>
</svg>