<?xml version="1.0" encoding="UTF-8"?>
<svg width="0.8em" height="1em" viewBox="0 0 10 12" version="1.1" xmlns="http://www.w3.org/2000/svg" xmlns:xlink="http://www.w3.org/1999/xlink">
    <title>􀈿</title>
    <g id="Page-1" stroke="none" stroke-width="1" fill="none" fill-rule="evenodd">
        <path d="M8.07617188,11.9746094 C8.66210938,11.9746094 9.10253906,11.8251953 9.39746094,11.5263672 C9.69238281,11.2275391 9.83984375,10.7832031 9.83984375,10.1933594 L9.83984375,5.16015625 C9.83984375,4.91015625 9.82617188,4.69921875 9.79882812,4.52734375 C9.77148438,4.35546875 9.71875,4.19824219 9.640625,4.05566406 C9.5625,3.91308594 9.4453125,3.76367188 9.2890625,3.60742188 L6.3125,0.583984375 C6.1640625,0.431640625 6.01953125,0.314453125 5.87890625,0.232421875 C5.73828125,0.150390625 5.58496094,0.0947265625 5.41894531,0.0654296875 C5.25292969,0.0361328125 5.05664062,0.021484375 4.83007812,0.021484375 L2.17578125,0.021484375 C1.59375,0.021484375 1.15429688,0.171875 0.857421875,0.47265625 C0.560546875,0.7734375 0.412109375,1.21875 0.412109375,1.80859375 L0.412109375,10.1933594 C0.412109375,10.7832031 0.560546875,11.2275391 0.857421875,11.5263672 C1.15429688,11.8251953 1.59375,11.9746094 2.17578125,11.9746094 L8.07617188,11.9746094 Z M8,10.9667969 L2.24609375,10.9667969 C1.97265625,10.9667969 1.76660156,10.8964844 1.62792969,10.7558594 C1.48925781,10.6152344 1.41992188,10.4121094 1.41992188,10.1464844 L1.41992188,1.85546875 C1.41992188,1.59375 1.49023438,1.39160156 1.63085938,1.24902344 C1.77148438,1.10644531 1.97851562,1.03515625 2.25195312,1.03515625 L4.66015625,1.03515625 L4.66015625,4.140625 C4.66015625,4.51953125 4.75292969,4.80175781 4.93847656,4.98730469 C5.12402344,5.17285156 5.40234375,5.265625 5.7734375,5.265625 L8.83789062,5.265625 L8.83789062,10.1464844 C8.83789062,10.4121094 8.76855469,10.6152344 8.62988281,10.7558594 C8.49121094,10.8964844 8.28125,10.9667969 8,10.9667969 Z M8.6796875,4.35742188 L5.87890625,4.35742188 C5.76953125,4.35742188 5.68945312,4.33203125 5.63867188,4.28125 C5.58789062,4.23046875 5.5625,4.1484375 5.5625,4.03515625 L5.5625,1.19335938 L8.6796875,4.35742188 Z M7.11523438,7.4453125 C7.21679688,7.4453125 7.30078125,7.41113281 7.3671875,7.34277344 C7.43359375,7.27441406 7.46679688,7.19140625 7.46679688,7.09375 C7.46679688,6.99609375 7.43359375,6.91503906 7.3671875,6.85058594 C7.30078125,6.78613281 7.21679688,6.75390625 7.11523438,6.75390625 L7.11523438,6.75390625 L3.02539062,6.75390625 C2.91992188,6.75390625 2.83496094,6.78613281 2.77050781,6.85058594 C2.70605469,6.91503906 2.67382812,6.99609375 2.67382812,7.09375 C2.67382812,7.19140625 2.70605469,7.27441406 2.77050781,7.34277344 C2.83496094,7.41113281 2.91992188,7.4453125 3.02539062,7.4453125 L3.02539062,7.4453125 L7.11523438,7.4453125 Z M7.11523438,9.33203125 C7.21679688,9.33203125 7.30078125,9.29980469 7.3671875,9.23535156 C7.43359375,9.17089844 7.46679688,9.08984375 7.46679688,8.9921875 C7.46679688,8.89453125 7.43359375,8.81152344 7.3671875,8.74316406 C7.30078125,8.67480469 7.21679688,8.640625 7.11523438,8.640625 L7.11523438,8.640625 L3.02539062,8.640625 C2.91992188,8.640625 2.83496094,8.67480469 2.77050781,8.74316406 C2.70605469,8.81152344 2.67382812,8.89453125 2.67382812,8.9921875 C2.67382812,9.08984375 2.70605469,9.17089844 2.77050781,9.23535156 C2.83496094,9.29980469 2.91992188,9.33203125 3.02539062,9.33203125 L3.02539062,9.33203125 L7.11523438,9.33203125 Z" id="􀈿" fill="currentcolor" fill-rule="nonzero"></path>
    </g>
</svg>