<?xml version="1.0" encoding="UTF-8"?>
<svg width="1em" height="0.6em" viewBox="0 0 13 8" version="1.1" xmlns="http://www.w3.org/2000/svg" xmlns:xlink="http://www.w3.org/1999/xlink">
    <title>􀠩</title>
    <g id="Page-1" stroke="none" stroke-width="1" fill="none" fill-rule="evenodd">
        <path d="M11.0351562,7.953125 C11.5625,7.953125 11.9658203,7.81640625 12.2451172,7.54296875 C12.5244141,7.26953125 12.6640625,6.87109375 12.6640625,6.34765625 L12.6640625,1.6484375 C12.6640625,1.125 12.5244141,0.727539062 12.2451172,0.456054688 C11.9658203,0.184570313 11.5625,0.048828125 11.0351562,0.048828125 L2.04101562,0.048828125 C1.51757812,0.048828125 1.11523438,0.184570313 0.833984375,0.456054688 C0.552734375,0.727539062 0.412109375,1.125 0.412109375,1.6484375 L0.412109375,6.34765625 C0.412109375,6.87109375 0.552734375,7.26953125 0.833984375,7.54296875 C1.11523438,7.81640625 1.51757812,7.953125 2.04101562,7.953125 L11.0351562,7.953125 Z M10.953125,7.00976562 L2.12304688,7.00976562 C1.90039062,7.00976562 1.72949219,6.94921875 1.61035156,6.828125 C1.49121094,6.70703125 1.43164062,6.53515625 1.43164062,6.3125 L1.43164062,1.67773438 C1.43164062,1.21289062 1.66210938,0.98046875 2.12304688,0.98046875 L10.953125,0.98046875 C11.4179688,0.98046875 11.6503906,1.21289062 11.6503906,1.67773438 L11.6503906,6.3125 C11.6503906,6.53515625 11.5908203,6.70703125 11.4716797,6.828125 C11.3525391,6.94921875 11.1796875,7.00976562 10.953125,7.00976562 Z M3.81054688,4.80664062 C4.03320312,4.80664062 4.22363281,4.72753906 4.38183594,4.56933594 C4.54003906,4.41113281 4.61914062,4.22070312 4.61914062,3.99804688 C4.61914062,3.77539062 4.54003906,3.58496094 4.38183594,3.42675781 C4.22363281,3.26855469 4.03320312,3.18945312 3.81054688,3.18945312 C3.58789062,3.18945312 3.39648438,3.26855469 3.23632812,3.42675781 C3.07617188,3.58496094 2.99609375,3.77539062 2.99609375,3.99804688 C2.99609375,4.22070312 3.07617188,4.41113281 3.23632812,4.56933594 C3.39648438,4.72753906 3.58789062,4.80664062 3.81054688,4.80664062 Z M6.546875,4.80664062 C6.765625,4.80664062 6.95507812,4.72753906 7.11523438,4.56933594 C7.27539062,4.41113281 7.35546875,4.22070312 7.35546875,3.99804688 C7.35546875,3.77539062 7.27539062,3.58496094 7.11523438,3.42675781 C6.95507812,3.26855469 6.765625,3.18945312 6.546875,3.18945312 C6.3203125,3.18945312 6.12792969,3.26855469 5.96972656,3.42675781 C5.81152344,3.58496094 5.73242188,3.77539062 5.73242188,3.99804688 C5.73242188,4.22070312 5.81152344,4.41113281 5.96972656,4.56933594 C6.12792969,4.72753906 6.3203125,4.80664062 6.546875,4.80664062 Z M9.27734375,4.80664062 C9.5,4.80664062 9.69140625,4.72753906 9.8515625,4.56933594 C10.0117188,4.41113281 10.0917969,4.22070312 10.0917969,3.99804688 C10.0917969,3.77539062 10.0117188,3.58496094 9.8515625,3.42675781 C9.69140625,3.26855469 9.5,3.18945312 9.27734375,3.18945312 C9.0546875,3.18945312 8.86425781,3.26855469 8.70605469,3.42675781 C8.54785156,3.58496094 8.46875,3.77539062 8.46875,3.99804688 C8.46875,4.22070312 8.54785156,4.41113281 8.70605469,4.56933594 C8.86425781,4.72753906 9.0546875,4.80664062 9.27734375,4.80664062 Z" id="􀠩" fill="currentcolor" fill-rule="nonzero"></path>
    </g>
</svg>