<?xml version="1.0" encoding="UTF-8"?>
<svg width="1em" height="1em" viewBox="0 0 57 55" version="1.1" xmlns="http://www.w3.org/2000/svg" xmlns:xlink="http://www.w3.org/1999/xlink">
    <title>􀪌</title>
    <g id="Page-1" stroke="none" stroke-width="1" fill="none" fill-rule="evenodd">
        <path d="M39.2675781,54.737793 C43.4067383,54.737793 45.3925781,52.8237305 45.3925781,48.612793 L45.3925781,46.9140625 L47.7612305,46.9140625 C53.0727539,46.9140625 56.0634766,43.9951172 56.0634766,38.6835938 L56.0634766,17.4614258 C56.0634766,12.1499023 53.0727539,9.20703125 47.7612305,9.20703125 L45.8950195,9.20703125 L45.8950195,7.8671875 C45.8950195,2.62744141 43.2871094,0.139160156 38.1430664,0.139160156 L17.9975586,0.139160156 C12.9731445,0.139160156 10.2695312,2.62744141 10.2695312,7.8671875 L10.2695312,9.20703125 L8.37939453,9.20703125 C3.1875,9.20703125 0.101074219,12.1499023 0.101074219,17.4614258 L0.101074219,38.6835938 C0.101074219,43.9951172 3.06787109,46.9140625 8.37939453,46.9140625 L10.7719727,46.9140625 L10.7719727,48.612793 C10.7719727,52.8237305 12.7578125,54.737793 16.8969727,54.737793 L39.2675781,54.737793 Z M40.1767578,9.20703125 L15.9638672,9.20703125 L15.9638672,7.41259766 C15.9638672,6.00097656 16.7294922,5.28320312 18.0932617,5.28320312 L38.0712891,5.28320312 C39.4350586,5.28320312 40.1767578,6.00097656 40.1767578,7.41259766 L40.1767578,9.20703125 Z M10.7719727,41.4111328 L8.47509766,41.4111328 C6.77636719,41.4111328 5.89111328,40.5019531 5.89111328,38.8032227 L5.89111328,17.3417969 C5.89111328,15.6430664 6.77636719,14.7338867 8.47509766,14.7338867 L47.6894531,14.7338867 C49.3642578,14.7338867 50.2734375,15.6430664 50.2734375,17.3417969 L50.2734375,38.8032227 C50.2734375,40.5019531 49.3642578,41.4111328 47.6894531,41.4111328 L45.3925781,41.4111328 L45.3925781,39.4013672 C45.3925781,35.1904297 43.4067383,33.2763672 39.2675781,33.2763672 L16.8969727,33.2763672 C12.8295898,33.2763672 10.7719727,35.1904297 10.7719727,39.4013672 L10.7719727,41.4111328 Z M18.1411133,22.5097656 C18.9067383,22.5097656 19.3613281,22.0791016 19.3613281,21.3134766 L19.3613281,19.0883789 C19.3613281,18.3227539 18.9067383,17.8681641 18.1411133,17.8681641 L15.9399414,17.8681641 C15.1743164,17.8681641 14.7197266,18.3227539 14.7197266,19.0883789 L14.7197266,21.3134766 C14.7197266,22.0791016 15.1743164,22.5097656 15.9399414,22.5097656 L18.1411133,22.5097656 Z M25.5102539,22.5097656 C26.2758789,22.5097656 26.706543,22.0791016 26.706543,21.3134766 L26.706543,19.0883789 C26.706543,18.3227539 26.2758789,17.8681641 25.5102539,17.8681641 L23.309082,17.8681641 C22.543457,17.8681641 22.0888672,18.3227539 22.0888672,19.0883789 L22.0888672,21.3134766 C22.0888672,22.0791016 22.543457,22.5097656 23.309082,22.5097656 L25.5102539,22.5097656 Z M32.8793945,22.5097656 C33.6450195,22.5097656 34.0756836,22.0791016 34.0756836,21.3134766 L34.0756836,19.0883789 C34.0756836,18.3227539 33.6450195,17.8681641 32.8793945,17.8681641 L30.6542969,17.8681641 C29.9125977,17.8681641 29.4580078,18.3227539 29.4580078,19.0883789 L29.4580078,21.3134766 C29.4580078,22.0791016 29.9125977,22.5097656 30.6542969,22.5097656 L32.8793945,22.5097656 Z M40.2246094,22.5097656 C40.9902344,22.5097656 41.4448242,22.0791016 41.4448242,21.3134766 L41.4448242,19.0883789 C41.4448242,18.3227539 40.9902344,17.8681641 40.2246094,17.8681641 L38.0234375,17.8681641 C37.2578125,17.8681641 36.8271484,18.3227539 36.8271484,19.0883789 L36.8271484,21.3134766 C36.8271484,22.0791016 37.2578125,22.5097656 38.0234375,22.5097656 L40.2246094,22.5097656 Z M18.1411133,30.1420898 C18.9067383,30.1420898 19.3613281,29.6875 19.3613281,28.921875 L19.3613281,26.6967773 C19.3613281,25.9550781 18.9067383,25.5004883 18.1411133,25.5004883 L15.9399414,25.5004883 C15.1743164,25.5004883 14.7197266,25.9550781 14.7197266,26.6967773 L14.7197266,28.921875 C14.7197266,29.6875 15.1743164,30.1420898 15.9399414,30.1420898 L18.1411133,30.1420898 Z M25.5102539,30.1420898 C26.2758789,30.1420898 26.706543,29.6875 26.706543,28.921875 L26.706543,26.6967773 C26.706543,25.9550781 26.2758789,25.5004883 25.5102539,25.5004883 L23.309082,25.5004883 C22.543457,25.5004883 22.0888672,25.9550781 22.0888672,26.6967773 L22.0888672,28.921875 C22.0888672,29.6875 22.543457,30.1420898 23.309082,30.1420898 L25.5102539,30.1420898 Z M32.8793945,30.1420898 C33.6450195,30.1420898 34.0756836,29.6875 34.0756836,28.921875 L34.0756836,26.6967773 C34.0756836,25.9550781 33.6450195,25.5004883 32.8793945,25.5004883 L30.6542969,25.5004883 C29.9125977,25.5004883 29.4580078,25.9550781 29.4580078,26.6967773 L29.4580078,28.921875 C29.4580078,29.6875 29.9125977,30.1420898 30.6542969,30.1420898 L32.8793945,30.1420898 Z M40.2246094,30.1420898 C40.9902344,30.1420898 41.4448242,29.6875 41.4448242,28.921875 L41.4448242,26.6967773 C41.4448242,25.9550781 40.9902344,25.5004883 40.2246094,25.5004883 L38.0234375,25.5004883 C37.2578125,25.5004883 36.8271484,25.9550781 36.8271484,26.6967773 L36.8271484,28.921875 C36.8271484,29.6875 37.2578125,30.1420898 38.0234375,30.1420898 L40.2246094,30.1420898 Z M38.6933594,49.5698242 L17.4711914,49.5698242 C16.5620117,49.5698242 16.0834961,49.1152344 16.0834961,48.1821289 L16.0834961,39.855957 C16.0834961,38.9467773 16.5620117,38.4921875 17.4711914,38.4921875 L38.6933594,38.4921875 C39.6025391,38.4921875 40.0810547,38.9467773 40.0810547,39.855957 L40.0810547,48.1821289 C40.0810547,49.1152344 39.6025391,49.5698242 38.6933594,49.5698242 Z M34.9370117,46.2441406 C36.1572266,46.2441406 37.1621094,45.2631836 37.1621094,43.9951172 C37.1621094,42.7509766 36.1572266,41.7460938 34.9370117,41.7460938 L21.2514648,41.7460938 C19.9833984,41.7460938 19.0024414,42.7509766 19.0024414,43.9951172 C19.0024414,45.2631836 19.9833984,46.2441406 21.2514648,46.2441406 L34.9370117,46.2441406 Z" id="􀪌" fill="currentcolor" fill-rule="nonzero"></path>
    </g>
</svg>