<?xml version="1.0" encoding="UTF-8"?>
<svg width="1em" height="1em" viewBox="0 0 12 12" version="1.1" xmlns="http://www.w3.org/2000/svg" xmlns:xlink="http://www.w3.org/1999/xlink">
    <title>􀜈</title>
    <g id="Page-1" stroke="none" stroke-width="1" fill="none" fill-rule="evenodd">
        <path d="M5.68554688,11.6992188 C6.46679687,11.6992188 7.20117188,11.5498047 7.88867188,11.2509766 C8.57617188,10.9521484 9.18164062,10.5410156 9.70507812,10.0175781 C10.2285156,9.49414062 10.6386719,8.88964844 10.9355469,8.20410156 C11.2324219,7.51855469 11.3808594,6.78515625 11.3808594,6.00390625 C11.3808594,5.22265625 11.2324219,4.48925781 10.9355469,3.80371094 C10.6386719,3.11816406 10.2275391,2.51269531 9.70214844,1.98730469 C9.17675781,1.46191406 8.5703125,1.05078125 7.8828125,0.75390625 C7.1953125,0.45703125 6.4609375,0.30859375 5.6796875,0.30859375 C4.90625,0.30859375 4.17578125,0.45703125 3.48828125,0.75390625 C2.80078125,1.05078125 2.19433594,1.46191406 1.66894531,1.98730469 C1.14355469,2.51269531 0.732421875,3.11816406 0.435546875,3.80371094 C0.138671875,4.48925781 -0.009765625,5.22265625 -0.009765625,6.00390625 C-0.009765625,6.78515625 0.139648438,7.51855469 0.438476562,8.20410156 C0.737304688,8.88964844 1.1484375,9.49414062 1.671875,10.0175781 C2.1953125,10.5410156 2.80078125,10.9521484 3.48828125,11.2509766 C4.17578125,11.5498047 4.90820312,11.6992188 5.68554688,11.6992188 Z M5.68554688,9.5546875 C5.59570312,9.5546875 5.51855469,9.48046875 5.45410156,9.33203125 C5.38964844,9.18359375 5.34082031,8.9921875 5.30761719,8.7578125 C5.27441406,8.5234375 5.2578125,8.27148438 5.2578125,8.00195312 L5.2578125,5.171875 C4.9921875,5.08203125 4.7734375,4.92285156 4.6015625,4.69433594 C4.4296875,4.46582031 4.34375,4.203125 4.34375,3.90625 C4.34375,3.66015625 4.40429688,3.43652344 4.52539062,3.23535156 C4.64648438,3.03417969 4.80859375,2.87304688 5.01171875,2.75195312 C5.21484375,2.63085938 5.43945312,2.5703125 5.68554688,2.5703125 C5.93164062,2.5703125 6.15625,2.62988281 6.359375,2.74902344 C6.5625,2.86816406 6.72460938,3.02929688 6.84570312,3.23242188 C6.96679688,3.43554688 7.02734375,3.66015625 7.02734375,3.90625 C7.02734375,4.20703125 6.94042969,4.47167969 6.76660156,4.70019531 C6.59277344,4.92871094 6.375,5.0859375 6.11328125,5.171875 L6.11328125,8.00195312 C6.11328125,8.27539062 6.09667969,8.52929688 6.06347656,8.76367188 C6.03027344,8.99804688 5.98144531,9.18847656 5.91699219,9.33496094 C5.85253906,9.48144531 5.77539062,9.5546875 5.68554688,9.5546875 Z M5.34570312,4 C5.46289062,4 5.56347656,3.95703125 5.64746094,3.87109375 C5.73144531,3.78515625 5.77539062,3.68359375 5.77929688,3.56640625 C5.77929688,3.4453125 5.73632812,3.34277344 5.65039062,3.25878906 C5.56445312,3.17480469 5.46289062,3.1328125 5.34570312,3.1328125 C5.22851562,3.1328125 5.12695312,3.17480469 5.04101562,3.25878906 C4.95507812,3.34277344 4.91210938,3.4453125 4.91210938,3.56640625 C4.91210938,3.68359375 4.95507812,3.78515625 5.04101562,3.87109375 C5.12695312,3.95703125 5.22851562,4 5.34570312,4 Z" fill="currentcolor" fill-rule="nonzero"></path>
    </g>
</svg>