<?xml version="1.0" encoding="UTF-8"?>
<svg width="1em" height="1em" viewBox="0 0 11 11" version="1.1" xmlns="http://www.w3.org/2000/svg" xmlns:xlink="http://www.w3.org/1999/xlink">
    <title>􀌿</title>
    <g id="Page-1" stroke="none" stroke-width="1" fill="none" fill-rule="evenodd">
        <path d="M8.32226562,10.4003906 C8.68554688,10.4003906 9.0234375,10.3349609 9.3359375,10.2041016 C9.6484375,10.0732422 9.93164062,9.86914062 10.1855469,9.59179688 C10.3300781,9.42382812 10.4462891,9.24609375 10.5341797,9.05859375 C10.6220703,8.87109375 10.6660156,8.68359375 10.6660156,8.49609375 C10.6660156,8.3515625 10.6367188,8.21289062 10.578125,8.08007812 C10.5195312,7.94726562 10.4199219,7.83398438 10.2792969,7.74023438 L8.57421875,6.53320312 C8.4453125,6.43554688 8.32519531,6.36523438 8.21386719,6.32226562 C8.10253906,6.27929688 7.99414062,6.2578125 7.88867188,6.2578125 C7.76367188,6.2578125 7.64160156,6.29199219 7.52246094,6.36035156 C7.40332031,6.42871094 7.28125,6.52734375 7.15625,6.65625 L6.75195312,7.04296875 C6.69726563,7.10546875 6.62695312,7.13671875 6.54101562,7.13671875 C6.49804688,7.13671875 6.45703125,7.12890625 6.41796875,7.11328125 C6.37890625,7.09765625 6.34570312,7.08398438 6.31835938,7.07226563 C6.14257812,6.97851562 5.91894531,6.81640625 5.64746094,6.5859375 C5.37597656,6.35546875 5.1015625,6.10351562 4.82421875,5.83007813 C4.55078125,5.55273438 4.29882812,5.27832031 4.06835938,5.00683594 C3.83789062,4.73535156 3.67773438,4.51367188 3.58789062,4.34179688 C3.57226562,4.31054688 3.55761719,4.27539062 3.54394531,4.23632812 C3.53027344,4.19726562 3.5234375,4.15625 3.5234375,4.11328125 C3.5234375,4.03125 3.55273438,3.96289062 3.61132812,3.90820312 L4.00390625,3.50390625 C4.12890625,3.375 4.22558594,3.25097656 4.29394531,3.13183594 C4.36230469,3.01269531 4.39648438,2.88867188 4.39648438,2.75976562 C4.39648438,2.66210938 4.37402344,2.55664062 4.32910156,2.44335938 C4.28417969,2.33007812 4.21679688,2.20703125 4.12695312,2.07421875 L2.92578125,0.392578125 C2.828125,0.255859375 2.7109375,0.155273438 2.57421875,0.0908203125 C2.4375,0.0263671875 2.29101562,-0.005859375 2.13476562,-0.005859375 C1.75195312,-0.005859375 1.39453125,0.154296875 1.0625,0.474609375 C0.7890625,0.736328125 0.58984375,1.02539062 0.46484375,1.34179688 C0.33984375,1.65820312 0.27734375,1.99414062 0.27734375,2.34960938 C0.27734375,2.88476562 0.40234375,3.45019531 0.65234375,4.04589844 C0.90234375,4.64160156 1.24121094,5.23535156 1.66894531,5.82714844 C2.09667969,6.41894531 2.58203125,6.984375 3.125,7.5234375 C3.6640625,8.06640625 4.23242188,8.55566406 4.83007812,8.99121094 C5.42773438,9.42675781 6.02539062,9.77050781 6.62304688,10.0224609 C7.22070312,10.2744141 7.78710937,10.4003906 8.32226562,10.4003906 Z" fill="currentcolor" fill-rule="nonzero"></path>
    </g>
</svg>