<?xml version="1.0" encoding="UTF-8"?>
<svg width="1.25em" height="0.75em" viewBox="0 0 15 10" version="1.1" xmlns="http://www.w3.org/2000/svg" xmlns:xlink="http://www.w3.org/1999/xlink">
    <title>􀍉</title>
    <g id="Page-1" stroke="none" stroke-width="1" fill="none" fill-rule="evenodd">
        <path d="M8.62109375,9.60351562 C9.31640625,9.60351562 9.85839844,9.41308594 10.2470703,9.03222656 C10.6357422,8.65136719 10.8300781,8.1171875 10.8300781,7.4296875 L10.83,6.72 L12.8691406,8.44921875 C12.9902344,8.546875 13.1142578,8.62695312 13.2412109,8.68945312 C13.3681641,8.75195312 13.4941406,8.78320312 13.6191406,8.78320312 C13.8652344,8.78320312 14.0654297,8.70117188 14.2197266,8.53710938 C14.3740234,8.37304688 14.4511719,8.15625 14.4511719,7.88671875 L14.4511719,2.12695312 C14.4511719,1.86132812 14.3740234,1.64550781 14.2197266,1.47949219 C14.0654297,1.31347656 13.8652344,1.23046875 13.6191406,1.23046875 C13.4941406,1.23046875 13.3681641,1.26171875 13.2412109,1.32421875 C13.1142578,1.38671875 12.9902344,1.47070312 12.8691406,1.57617188 L10.83,3.301 L10.8300781,2.57226562 C10.8300781,1.88476562 10.6357422,1.3515625 10.2470703,0.97265625 C9.85839844,0.59375 9.31640625,0.404296875 8.62109375,0.404296875 L2.84375,0.404296875 C2.17578125,0.404296875 1.64160156,0.59375 1.24121094,0.97265625 C0.840820312,1.3515625 0.640625,1.88476562 0.640625,2.57226562 L0.640625,7.44726563 C0.640625,8.13476562 0.833984375,8.66601562 1.22070312,9.04101562 C1.60742188,9.41601562 2.1484375,9.60351562 2.84375,9.60351562 L8.62109375,9.60351562 Z M8.45117188,8.67773438 L3.01367188,8.67773438 C2.57226562,8.67773438 2.23046875,8.56152344 1.98828125,8.32910156 C1.74609375,8.09667969 1.625,7.74609375 1.625,7.27734375 L1.625,2.72460938 C1.625,2.25585938 1.74609375,1.90527344 1.98828125,1.67285156 C2.23046875,1.44042969 2.57226562,1.32421875 3.01367188,1.32421875 L8.45117188,1.32421875 C8.89257812,1.32421875 9.234375,1.44140625 9.4765625,1.67578125 C9.71875,1.91015625 9.83984375,2.25976562 9.83984375,2.72460938 L9.83984375,7.27734375 C9.83984375,7.74609375 9.71777344,8.09667969 9.47363281,8.32910156 C9.22949219,8.56152344 8.88867188,8.67773438 8.45117188,8.67773438 Z M13.4140625,7.66992188 C13.390625,7.66992188 13.3691406,7.66308594 13.3496094,7.64941406 C13.3300781,7.63574219 13.3085938,7.62109375 13.2851562,7.60546875 L10.83,5.591 L10.83,4.425 L13.2851562,2.4140625 C13.3085938,2.390625 13.3300781,2.37304688 13.3496094,2.36132812 C13.3691406,2.34960938 13.390625,2.34375 13.4140625,2.34375 C13.4765625,2.34375 13.5078125,2.38671875 13.5078125,2.47265625 L13.5078125,7.546875 C13.5078125,7.62890625 13.4765625,7.66992188 13.4140625,7.66992188 Z" id="􀍉" fill="currentcolor" fill-rule="nonzero"></path>
    </g>
</svg>