<?xml version="1.0" encoding="UTF-8"?>
<svg width="1em" height="1em" viewBox="0 0 12 12" version="1.1" xmlns="http://www.w3.org/2000/svg" xmlns:xlink="http://www.w3.org/1999/xlink">
    <title>􀁡</title>
    <g id="Page-1" stroke="none" stroke-width="1" fill="none" fill-rule="evenodd">
        <path d="M5.68554688,11.6933594 C6.46679687,11.6933594 7.20117188,11.5439453 7.88867188,11.2451172 C8.57617188,10.9462891 9.18164062,10.5351562 9.70507812,10.0117188 C10.2285156,9.48828125 10.6386719,8.88378906 10.9355469,8.19824219 C11.2324219,7.51269531 11.3808594,6.77929687 11.3808594,5.99804688 C11.3808594,5.21679688 11.2324219,4.48339844 10.9355469,3.79785156 C10.6386719,3.11230469 10.2275391,2.50683594 9.70214844,1.98144531 C9.17675781,1.45605469 8.5703125,1.04492188 7.8828125,0.748046875 C7.1953125,0.451171875 6.4609375,0.302734375 5.6796875,0.302734375 C4.90625,0.302734375 4.17578125,0.451171875 3.48828125,0.748046875 C2.80078125,1.04492188 2.19433594,1.45605469 1.66894531,1.98144531 C1.14355469,2.50683594 0.732421875,3.11230469 0.435546875,3.79785156 C0.138671875,4.48339844 -0.009765625,5.21679688 -0.009765625,5.99804688 C-0.009765625,6.77929687 0.139648438,7.51269531 0.438476562,8.19824219 C0.737304688,8.88378906 1.1484375,9.48828125 1.671875,10.0117188 C2.1953125,10.5351562 2.80078125,10.9462891 3.48828125,11.2451172 C4.17578125,11.5439453 4.90820312,11.6933594 5.68554688,11.6933594 Z M7.6015625,8.41210938 C7.46875,8.41210938 7.34960938,8.36328125 7.24414062,8.265625 L5.69140625,6.70703125 L4.1328125,8.265625 C4.03515625,8.36328125 3.9140625,8.41210938 3.76953125,8.41210938 C3.63671875,8.41210938 3.52148438,8.36425781 3.42382812,8.26855469 C3.32617188,8.17285156 3.27734375,8.0546875 3.27734375,7.9140625 C3.27734375,7.78125 3.32617188,7.66601562 3.42382812,7.56835938 L4.98828125,6.00390625 L3.42382812,4.4453125 C3.32617188,4.34765625 3.27734375,4.23046875 3.27734375,4.09375 C3.27734375,3.953125 3.32617188,3.83691406 3.42382812,3.74511719 C3.52148438,3.65332031 3.63671875,3.60742188 3.76953125,3.60742188 C3.9140625,3.60742188 4.03125,3.65429688 4.12109375,3.74804688 L5.69140625,5.3125 L7.26171875,3.7421875 C7.359375,3.64453125 7.4765625,3.59570312 7.61328125,3.59570312 C7.75,3.59570312 7.86621094,3.64355469 7.96191406,3.73925781 C8.05761719,3.83496094 8.10546875,3.95117188 8.10546875,4.08789062 C8.10546875,4.22070312 8.05664062,4.33789062 7.95898438,4.43945312 L6.39453125,6.00390625 L7.953125,7.5625 C8.05078125,7.6640625 8.09960938,7.78125 8.09960938,7.9140625 C8.09960938,8.0546875 8.05273438,8.17285156 7.95898438,8.26855469 C7.86523438,8.36425781 7.74609375,8.41210938 7.6015625,8.41210938 Z" id="􀁡" fill="currentcolor" fill-rule="nonzero"></path>
    </g>
</svg>